<?xml version="1.0" encoding="UTF-8" standalone="no"?>
<!DOCTYPE svg PUBLIC "-//W3C//DTD SVG 1.1//EN" "http://www.w3.org/Graphics/SVG/1.1/DTD/svg11.dtd">
<svg width="100%" height="100%" viewBox="0 0 280 89" version="1.1" xmlns="http://www.w3.org/2000/svg" xmlns:xlink="http://www.w3.org/1999/xlink" xml:space="preserve" xmlns:serif="http://www.serif.com/" style="fill-rule:evenodd;clip-rule:evenodd;stroke-linejoin:round;stroke-miterlimit:2;">
    <g transform="matrix(1,0,0,1,-0.154,-0.601)">
        <g>
            <path d="M44.238,0.601C21,0.601 1.963,18.519 0.154,41.29L23.864,51.093C25.873,49.719 28.3,48.914 30.911,48.914C31.145,48.914 31.378,48.922 31.609,48.935L42.153,33.652C42.153,33.579 42.152,33.508 42.152,33.436C42.152,24.237 49.635,16.753 58.835,16.753C68.034,16.753 75.517,24.237 75.517,33.436C75.517,42.635 68.034,50.12 58.835,50.12C58.708,50.12 58.582,50.117 58.456,50.114L43.418,60.844C43.426,61.039 43.433,61.238 43.433,61.436C43.433,68.342 37.816,73.958 30.911,73.958C24.85,73.958 19.782,69.632 18.634,63.903L1.678,56.893C6.928,75.461 23.987,89.074 44.238,89.074C68.67,89.074 88.475,69.268 88.475,44.839C88.475,20.406 68.669,0.601 44.238,0.601" style="fill:rgb(253,255,254);fill-rule:nonzero;"/>
            <path d="M27.875,67.723L22.441,65.478C23.404,67.483 25.07,69.162 27.282,70.084C32.064,72.076 37.577,69.807 39.57,65.021C40.535,62.707 40.541,60.152 39.584,57.832C38.629,55.511 36.827,53.701 34.51,52.735C32.211,51.778 29.748,51.813 27.584,52.63L33.197,54.951C36.724,56.421 38.392,60.471 36.922,63.998C35.455,67.526 31.402,69.194 27.875,67.723" style="fill:rgb(253,255,254);fill-rule:nonzero;"/>
            <path d="M69.95,33.436C69.95,27.307 64.964,22.32 58.834,22.32C52.705,22.32 47.718,27.307 47.718,33.436C47.718,39.566 52.705,44.551 58.834,44.551C64.964,44.55 69.95,39.565 69.95,33.436M50.502,33.417C50.502,28.805 54.241,25.067 58.853,25.067C63.465,25.067 67.204,28.805 67.204,33.417C67.204,38.029 63.465,41.767 58.853,41.767C54.241,41.767 50.502,38.028 50.502,33.417" style="fill:rgb(253,255,254);fill-rule:nonzero;"/>
            <path d="M135.718,30.868L132.754,36.078C130.471,34.483 127.377,33.523 124.676,33.523C121.589,33.523 119.679,34.801 119.679,37.09C119.679,39.871 123.072,40.518 128.115,42.328C133.536,44.245 136.652,46.498 136.652,51.463C136.652,58.256 131.31,62.071 123.632,62.071C119.89,62.071 115.376,61.105 111.906,58.994L114.068,53.218C116.887,54.707 120.259,55.59 123.265,55.59C127.317,55.59 129.243,54.095 129.243,51.885C129.243,49.356 126.306,48.596 121.565,47.026C116.162,45.222 112.418,42.855 112.418,37.36C112.418,31.163 117.381,27.604 124.522,27.604C129.499,27.604 133.499,29.181 135.718,30.868" style="fill:rgb(253,255,254);fill-rule:nonzero;"/>
            <path d="M158.888,34.161L158.888,61.5L151.909,61.5L151.909,34.161L141.779,34.161L141.779,28.175L168.988,28.175L168.988,34.161L158.888,34.161Z" style="fill:rgb(253,255,254);fill-rule:nonzero;"/>
            <path d="M183.7,34.143L183.7,41.652L197.056,41.652L197.056,47.638L183.7,47.638L183.7,55.459L199.196,55.459L199.196,61.5L176.723,61.5L176.723,28.175L199.196,28.175L199.196,34.143L183.7,34.143Z" style="fill:rgb(253,255,254);fill-rule:nonzero;"/>
            <path d="M214.773,55.03L212.567,61.501L205.251,61.501L217.746,28.176L224.771,28.176L237.619,61.5L230.056,61.5L227.802,55.029L214.773,55.029L214.773,55.03ZM221.219,36.125L216.668,49.468L225.864,49.468L221.219,36.125Z" style="fill:rgb(253,255,254);fill-rule:nonzero;"/>
            <path d="M273.436,41.056L264.316,60.529L260.378,60.529L251.406,41.23L251.406,61.5L244.723,61.5L244.723,28.175L251.391,28.175L262.591,52.231L273.393,28.175L280.119,28.175L280.119,61.5L273.437,61.5L273.436,41.056Z" style="fill:rgb(253,255,254);fill-rule:nonzero;"/>
        </g>
    </g>
</svg>
