<?xml version="1.0" encoding="UTF-8" standalone="no"?>
<!DOCTYPE svg PUBLIC "-//W3C//DTD SVG 1.1//EN" "http://www.w3.org/Graphics/SVG/1.1/DTD/svg11.dtd">
<svg width="100%" height="100%" viewBox="0 0 1590 1820" version="1.1" xmlns="http://www.w3.org/2000/svg" xmlns:xlink="http://www.w3.org/1999/xlink" xml:space="preserve" xmlns:serif="http://www.serif.com/" style="fill-rule:evenodd;clip-rule:evenodd;stroke-linejoin:round;stroke-miterlimit:2;">
    <rect id="_16:10-Light---Large" serif:id="16:10 Light - Large" x="0" y="0" width="1590" height="1820" style="fill:none;"/>
    <g id="_16:10-Light---Large1" serif:id="16:10 Light - Large">
        <g transform="matrix(0.991272,0,0,0.995079,-185.368,-177.124)">
            <path d="M1791,201.611C1791,188.58 1780.38,178 1767.3,178L210.701,178C197.62,178 187,188.58 187,201.611L187,1983.39C187,1996.42 197.62,2007 210.701,2007L1767.3,2007C1780.38,2007 1791,1996.42 1791,1983.39L1791,201.611Z" style="fill:white;fill-opacity:0.9;"/>
        </g>
        <g transform="matrix(223.333,0,0,0.333333,-27121.7,176.167)">
            <rect x="122" y="158.5" width="6" height="3" style="fill:rgb(221,221,221);"/>
        </g>
        <g transform="matrix(223.333,0,0,0.333333,-27121.7,346.167)">
            <rect x="122" y="158.5" width="6" height="3" style="fill:rgb(221,221,221);"/>
        </g>
        <g transform="matrix(223.333,0,0,0.333333,-27121.7,516.167)">
            <rect x="122" y="158.5" width="6" height="3" style="fill:rgb(221,221,221);"/>
        </g>
        <g transform="matrix(223.333,0,0,0.333333,-27121.7,686.167)">
            <rect x="122" y="158.5" width="6" height="3" style="fill:rgb(221,221,221);"/>
        </g>
        <g transform="matrix(223.333,0,0,0.333333,-27121.7,856.167)">
            <rect x="122" y="158.5" width="6" height="3" style="fill:rgb(221,221,221);"/>
        </g>
        <g transform="matrix(223.333,0,0,0.333333,-27121.7,1026.17)">
            <rect x="122" y="158.5" width="6" height="3" style="fill:rgb(221,221,221);"/>
        </g>
        <g transform="matrix(223.333,0,0,0.333333,-27121.7,1196.17)">
            <rect x="122" y="158.5" width="6" height="3" style="fill:rgb(221,221,221);"/>
        </g>
        <g transform="matrix(223.333,0,0,0.333333,-27121.7,1366.17)">
            <rect x="122" y="158.5" width="6" height="3" style="fill:rgb(221,221,221);"/>
        </g>
        <g transform="matrix(223.333,0,0,0.333333,-27121.7,1536.17)">
            <rect x="122" y="158.5" width="6" height="3" style="fill:rgb(221,221,221);"/>
        </g>
    </g>
</svg>
