<?xml version="1.0" encoding="utf-8"?>
<svg width="100%" height="100%" viewBox="0 0 1590 1820" version="1.1" style="fill-rule:evenodd;clip-rule:evenodd;stroke-linejoin:round;stroke-miterlimit:2;" xmlns="http://www.w3.org/2000/svg">
  <path d="M 1590 23.495 C 1590 10.528 1579.472 0 1566.507 0 L 23.494 0 C 10.527 0 0 10.528 0 23.495 L 0 1796.505 C 0 1809.471 10.527 1819.999 23.494 1819.999 L 1566.507 1819.999 C 1579.472 1819.999 1590 1809.471 1590 1796.505 L 1590 23.495 Z" style="fill-opacity: 0.9; fill: rgb(17, 17, 17);" clip-path="url(#_clip1)"/>
  <rect x="124.926" y="229" width="1339.998" height="1" clip-path="url(#_clip1)"/>
  <rect x="124.926" y="399" width="1339.998" height="1" clip-path="url(#_clip1)"/>
  <rect x="124.926" y="569" width="1339.998" height="1" clip-path="url(#_clip1)"/>
  <rect x="124.926" y="739" width="1339.998" height="1" clip-path="url(#_clip1)"/>
  <rect x="124.926" y="909" width="1339.998" height="1" clip-path="url(#_clip1)"/>
  <rect x="124.926" y="1079.003" width="1339.998" height="1" clip-path="url(#_clip1)"/>
  <rect x="124.926" y="1249.003" width="1339.998" height="1" clip-path="url(#_clip1)"/>
  <rect x="124.926" y="1419.003" width="1339.998" height="1" clip-path="url(#_clip1)"/>
  <rect x="124.926" y="1589.003" width="1339.998" height="1" clip-path="url(#_clip1)"/>
</svg>