<?xml version="1.0" encoding="utf-8"?>
<svg width="100%" height="100%" viewBox="0 0 1590 1620" version="1.1" style="fill-rule:evenodd;clip-rule:evenodd;stroke-linejoin:round;stroke-miterlimit:2;" xmlns="http://www.w3.org/2000/svg">
  <path d="M 1590 20.913 C 1590 9.371 1579.473 0 1566.507 0 L 23.494 0 C 10.527 0 0 9.371 0 20.913 L 0 1599.088 C 0 1610.629 10.527 1620 23.494 1620 L 1566.507 1620 C 1579.473 1620 1590 1610.629 1590 1599.088 L 1590 20.913 Z" style="fill-opacity: 0.9; fill: rgb(17, 17, 17);"/>
  <path d="M 124.926 209.001 H 1464.924 V 210.001 H 124.926 V 209.001 Z"/>
  <path d="M 124.926 359 H 1464.924 V 360 H 124.926 V 359 Z"/>
  <path d="M 27246.625 52.833 H 28586.623 V 53.833 H 27246.625 V 52.833 Z" transform="matrix(1, 0, 0, 1, -27121.699219, 456.167145)"/>
  <path d="M 27246.625 52.833 H 28586.623 V 53.833 H 27246.625 V 52.833 Z" transform="matrix(1, 0, 0, 1, -27121.699219, 606.166687)"/>
  <path d="M 27246.625 52.833 H 28586.623 V 53.833 H 27246.625 V 52.833 Z" transform="matrix(1, 0, 0, 1, -27121.699219, 756.167175)"/>
  <path d="M 27246.625 52.833 H 28586.623 V 53.833 H 27246.625 V 52.833 Z" transform="matrix(1, 0, 0, 1, -27121.699219, 906.167603)"/>
  <path d="M 27246.625 52.833 H 28586.623 V 53.833 H 27246.625 V 52.833 Z" transform="matrix(1, 0, 0, 1, -27121.699219, 1056.168945)"/>
  <path d="M 27246.625 52.833 H 28586.623 V 53.833 H 27246.625 V 52.833 Z" transform="matrix(1, 0, 0, 1, -27121.699219, 1206.170288)"/>
  <path d="M 27246.625 52.833 H 28586.623 V 53.833 H 27246.625 V 52.833 Z" transform="matrix(1, 0, 0, 1, -27121.699219, 1356.16272)"/>
</svg>