<?xml version="1.0" encoding="utf-8"?>
<svg width="100%" height="100%" viewBox="0 0 1590 1620" version="1.1" style="fill-rule:evenodd;clip-rule:evenodd;stroke-linejoin:round;stroke-miterlimit:2;" xmlns="http://www.w3.org/2000/svg">
  <path d="M 1590 20.913 C 1590 9.371 1579.472 0 1566.507 0 L 23.494 0 C 10.527 0 0 9.371 0 20.913 L 0 1599.087 C 0 1610.628 10.527 1619.999 23.494 1619.999 L 1566.507 1619.999 C 1579.472 1619.999 1590 1610.628 1590 1599.087 L 1590 20.913 Z" style="fill-opacity: 0.9; fill: rgb(17, 17, 17);" clip-path="url(#_clip1)"/>
  <rect x="124.926" y="184" width="1339.998" height="1" clip-path="url(#_clip1)"/>
  <rect x="124.926" y="309" width="1339.998" height="1" clip-path="url(#_clip1)"/>
  <rect x="124.926" y="434" width="1339.998" height="1" clip-path="url(#_clip1)"/>
  <rect x="124.926" y="559" width="1339.998" height="1" clip-path="url(#_clip1)"/>
  <rect x="124.926" y="684" width="1339.998" height="1" clip-path="url(#_clip1)"/>
  <rect x="124.926" y="809.001" width="1339.998" height="1" clip-path="url(#_clip1)"/>
  <rect x="124.926" y="934" width="1339.998" height="1" clip-path="url(#_clip1)"/>
  <rect x="27246.625" y="52.833" width="1339.998" height="1" transform="matrix(1, 0, 0, 1, -27121.699219, 1006.162537)" clip-path="url(#_clip1)"/>
  <rect x="124.926" y="1184.003" width="1339.998" height="1" clip-path="url(#_clip1)"/>
  <rect x="27246.625" y="52.833" width="1339.998" height="1" transform="matrix(1, 0, 0, 1, -27121.699219, 1256.167725)" clip-path="url(#_clip1)"/>
  <rect x="124.926" y="1433.999" width="1339.998" height="1" clip-path="url(#_clip1)"/>
</svg>