<?xml version="1.0" encoding="UTF-8" standalone="no"?>
<!DOCTYPE svg PUBLIC "-//W3C//DTD SVG 1.1//EN" "http://www.w3.org/Graphics/SVG/1.1/DTD/svg11.dtd">
<svg width="100%" height="100%" viewBox="0 0 1620 2180" version="1.1" xmlns="http://www.w3.org/2000/svg" xmlns:xlink="http://www.w3.org/1999/xlink" xml:space="preserve" xmlns:serif="http://www.serif.com/" style="fill-rule:evenodd;clip-rule:evenodd;stroke-linejoin:round;stroke-miterlimit:2;">
    <g transform="matrix(1,0,0,1,-3521,-4.09273e-12)">
        <g id="_4:3---Dark" serif:id="4:3 - Dark" transform="matrix(1.1058,0,0,1.5843,1652.19,3227.22)">
            <rect x="1690" y="-2037" width="1465" height="1376" style="fill:none;"/>
            <clipPath id="_clip1">
                <rect x="1690" y="-2037" width="1465" height="1376"/>
            </clipPath>
            <g clip-path="url(#_clip1)">
                <g transform="matrix(0.913342,0,0,0.752324,1519.21,-2170.91)">
                    <path d="M1791,201.611C1791,188.58 1780.38,178 1767.3,178L210.701,178C197.62,178 187,188.58 187,201.611L187,1983.39C187,1996.42 197.62,2007 210.701,2007L1767.3,2007C1780.38,2007 1791,1996.42 1791,1983.39L1791,201.611Z" style="fill:rgb(45,45,45);fill-opacity:0.9;"/>
                </g>
            </g>
        </g>
    </g>
</svg>
