<?xml version="1.0" encoding="UTF-8" standalone="no"?>
<!DOCTYPE svg PUBLIC "-//W3C//DTD SVG 1.1//EN" "http://www.w3.org/Graphics/SVG/1.1/DTD/svg11.dtd">
<svg width="100%" height="100%" viewBox="0 0 1590 1820" version="1.1" xmlns="http://www.w3.org/2000/svg" xmlns:xlink="http://www.w3.org/1999/xlink" xml:space="preserve" xmlns:serif="http://www.serif.com/" style="fill-rule:evenodd;clip-rule:evenodd;stroke-linejoin:round;stroke-miterlimit:2;">
    <g transform="matrix(1,0,0,1,-1690,0)">
        <g transform="matrix(1,0,0,1,1690,0)">
            <rect id="Artboard1" x="0" y="0" width="1590" height="1820" style="fill:none;"/>
            <clipPath id="_clip1">
                <rect id="Artboard11" serif:id="Artboard1" x="0" y="0" width="1590" height="1820"/>
            </clipPath>
            <g clip-path="url(#_clip1)">
                <g transform="matrix(0.991272,0,0,0.995079,-185.368,-177.124)">
                    <path d="M1791,201.611C1791,188.58 1780.38,178 1767.3,178L210.701,178C197.62,178 187,188.58 187,201.611L187,1983.39C187,1996.42 197.62,2007 210.701,2007L1767.3,2007C1780.38,2007 1791,1996.42 1791,1983.39L1791,201.611Z" style="fill:rgb(45,45,45);fill-opacity:0.9;"/>
                </g>
                <g transform="matrix(223.333,0,0,0.333333,-27121.7,106.167)">
                    <rect x="122" y="158.5" width="6" height="3"/>
                </g>
                <g transform="matrix(223.333,0,0,0.333333,-27121.7,206.167)">
                    <rect x="122" y="158.5" width="6" height="3"/>
                </g>
                <g transform="matrix(223.333,0,0,0.333333,-27121.7,306.167)">
                    <rect x="122" y="158.5" width="6" height="3"/>
                </g>
                <g transform="matrix(223.333,0,0,0.333333,-27121.7,406.167)">
                    <rect x="122" y="158.5" width="6" height="3"/>
                </g>
                <g transform="matrix(223.333,0,0,0.333333,-27121.7,506.167)">
                    <rect x="122" y="158.5" width="6" height="3"/>
                </g>
                <g transform="matrix(223.333,0,0,0.333333,-27121.7,606.167)">
                    <rect x="122" y="158.5" width="6" height="3"/>
                </g>
                <g transform="matrix(223.333,0,0,0.333333,-27121.7,706.167)">
                    <rect x="122" y="158.5" width="6" height="3"/>
                </g>
                <g transform="matrix(223.333,0,0,0.333333,-27121.7,806.167)">
                    <rect x="122" y="158.5" width="6" height="3"/>
                </g>
                <g transform="matrix(223.333,0,0,0.333333,-27121.7,906.167)">
                    <rect x="122" y="158.5" width="6" height="3"/>
                </g>
                <g transform="matrix(223.333,0,0,0.333333,-27121.7,1006.17)">
                    <rect x="122" y="158.5" width="6" height="3"/>
                </g>
                <g transform="matrix(223.333,0,0,0.333333,-27121.7,1106.17)">
                    <rect x="122" y="158.5" width="6" height="3"/>
                </g>
                <g transform="matrix(223.333,0,0,0.333333,-27121.7,1206.17)">
                    <rect x="122" y="158.5" width="6" height="3"/>
                </g>
                <g transform="matrix(223.333,0,0,0.333333,-27121.7,1306.17)">
                    <rect x="122" y="158.5" width="6" height="3"/>
                </g>
                <g transform="matrix(223.333,0,0,0.333333,-27121.7,1406.17)">
                    <rect x="122" y="158.5" width="6" height="3"/>
                </g>
                <g transform="matrix(223.333,0,0,0.333333,-27121.7,1506.17)">
                    <rect x="122" y="158.5" width="6" height="3"/>
                </g>
                <g transform="matrix(223.333,0,0,0.333333,-27121.7,1606.17)">
                    <rect x="122" y="158.5" width="6" height="3"/>
                </g>
            </g>
        </g>
    </g>
</svg>
