<?xml version="1.0" encoding="UTF-8" standalone="no"?>
<!DOCTYPE svg PUBLIC "-//W3C//DTD SVG 1.1//EN" "http://www.w3.org/Graphics/SVG/1.1/DTD/svg11.dtd">
<svg width="100%" height="100%" viewBox="0 0 1624 105" version="1.1" xmlns="http://www.w3.org/2000/svg" xmlns:xlink="http://www.w3.org/1999/xlink" xml:space="preserve" xmlns:serif="http://www.serif.com/" style="fill-rule:evenodd;clip-rule:evenodd;stroke-linejoin:round;stroke-miterlimit:2;">
    <g transform="matrix(1,0,0,1,-5.68434e-14,-925)">
        <g id="gamelist-metadata-background-light-base.svg" transform="matrix(1,0,0,0.403846,5.68434e-14,925)">
            <rect x="0" y="0" width="1624" height="260" style="fill:none;"/>
            <clipPath id="_clip1">
                <rect x="0" y="0" width="1624" height="260"/>
            </clipPath>
            <g clip-path="url(#_clip1)">
                <g transform="matrix(0.398804,0,0,0.921986,-796.81,-1129.43)">
                    <path d="M3001,1253.2C3001,1237.64 2989.2,1225 2974.67,1225L2024.33,1225C2009.8,1225 1998,1237.64 1998,1253.2L1998,1478.8C1998,1494.36 2009.8,1507 2024.33,1507L2974.67,1507C2989.2,1507 3001,1494.36 3001,1478.8L3001,1253.2Z" style="fill:white;fill-opacity:0.9;"/>
                </g>
                <g transform="matrix(0.418744,0,0,0.921986,-396.65,-1129.43)">
                    <path d="M3001,1252.17C3001,1237.17 2990.18,1225 2976.84,1225L2022.16,1225C2008.82,1225 1998,1237.17 1998,1252.17L1998,1479.83C1998,1494.83 2008.82,1507 2022.16,1507L2976.84,1507C2990.18,1507 3001,1494.83 3001,1479.83L3001,1252.17Z" style="fill:white;fill-opacity:0.9;"/>
                </g>
                <g transform="matrix(0.721834,0,0,0.921986,-542.225,-1129.43)">
                    <path d="M3001,1253.2C3001,1237.64 2994.48,1225 2986.45,1225L2012.55,1225C2004.52,1225 1998,1237.64 1998,1253.2L1998,1478.8C1998,1494.36 2004.52,1507 2012.55,1507L2986.45,1507C2994.48,1507 3001,1494.36 3001,1478.8L3001,1253.2Z" style="fill:white;fill-opacity:0.9;"/>
                </g>
            </g>
        </g>
    </g>
</svg>
