<?xml version="1.0" encoding="utf-8"?>
<svg width="100%" height="100%" viewBox="0 0 1624 260" version="1.1" style="fill-rule:evenodd;clip-rule:evenodd;stroke-linejoin:round;stroke-miterlimit:2;" xmlns="http://www.w3.org/2000/svg">
  <path d="M 400.001 7 C 400.001 3.138 396.866 0 393.002 0 L 6.999 0 C 3.139 0 0 3.138 0 7 L 0 63 C 0 66.863 3.139 70 6.999 70 L 393.002 70 C 396.866 70 400.001 66.863 400.001 63 L 400.001 7 Z" style="fill:white;fill-opacity:0.9;"/>
  <path d="M 400.001 101.744 C 400.001 98.021 396.978 95 393.257 95 L 6.744 95 C 3.023 95 0 98.021 0 101.744 L 0 158.256 C 0 161.979 3.023 165 6.744 165 L 393.257 165 C 396.978 165 400.001 161.979 400.001 158.256 L 400.001 101.744 Z" style="fill:white;fill-opacity:0.9;"/>
  <path d="M 400.001 197 C 400.001 193.138 396.866 190 393.002 190 L 6.999 190 C 3.139 190 0 193.138 0 197 L 0 253 C 0 256.863 3.139 260 6.999 260 L 393.002 260 C 396.866 260 400.001 256.863 400.001 253 L 400.001 197 Z" style="fill:white;fill-opacity:0.9;"/>
  <path d="M 1624 7 C 1624 3.138 1620.86 0 1617 0 L 446.999 0 C 443.139 0 439.999 3.138 439.999 7 L 439.999 63 C 439.999 66.863 443.139 70 446.999 70 L 1617 70 C 1620.86 70 1624 66.863 1624 63 L 1624 7 Z" style="fill:white;fill-opacity:0.9;"/>
  <path d="M 1183.996 102 C 1183.996 98.138 1180.859 95 1176.994 95 L 446.999 95 C 443.134 95 439.996 98.138 439.996 102 L 439.996 158 C 439.996 161.863 443.134 165 446.999 165 L 1176.994 165 C 1180.859 165 1183.996 161.863 1183.996 158 L 1183.996 102 Z" style="fill:white;fill-opacity:0.9;"/>
  <path d="M 1183.996 197 C 1183.996 193.138 1180.859 190 1176.994 190 L 446.999 190 C 443.134 190 439.996 193.138 439.996 197 L 439.996 253 C 439.996 256.863 443.134 260 446.999 260 L 1176.994 260 C 1180.859 260 1183.996 256.863 1183.996 253 L 1183.996 197 Z" style="fill:white;fill-opacity:0.9;"/>
  <path d="M 1624.001 102 C 1624.001 98.138 1620.866 95 1617.002 95 L 1230.999 95 C 1227.139 95 1224 98.138 1224 102 L 1224 158 C 1224 161.863 1227.139 165 1230.999 165 L 1617.002 165 C 1620.866 165 1624.001 161.863 1624.001 158 L 1624.001 102 Z" style="fill:white;fill-opacity:0.9;"/>
  <path d="M 1624.001 197 C 1624.001 193.138 1620.866 190 1617.002 190 L 1230.999 190 C 1227.139 190 1224 193.138 1224 197 L 1224 253 C 1224 256.863 1227.139 260 1230.999 260 L 1617.002 260 C 1620.866 260 1624.001 256.863 1624.001 253 L 1624.001 197 Z" style="fill:white;fill-opacity:0.9;"/>
  <rect x="70" y="110" width="1" height="40" style="fill:rgb(160,160,160);"/>
  <rect x="70" y="205" width="1" height="40" style="fill:rgb(160,160,160);"/>
  <rect x="510" y="15" width="1" height="40" style="fill:rgb(160,160,160);"/>
  <rect x="510" y="110" width="1" height="40" style="fill:rgb(160,160,160);"/>
  <rect x="510" y="205" width="1" height="40" style="fill:rgb(160,160,160);"/>
  <rect x="1294" y="110" width="1" height="40" style="fill:rgb(160,160,160);"/>
  <rect x="1294" y="205" width="1" height="40" style="fill:rgb(160,160,160);"/>
  <path d="M 29.064 132.5 L 25.936 132.5 C 25.42 132.498 25.002 132.08 25 131.564 L 25 128.436 C 25.002 127.92 25.42 127.502 25.936 127.5 L 29.06 127.5 C 29.576 127.502 29.994 127.92 29.996 128.436 L 29.996 131.56 C 29.996 132.076 29.58 132.496 29.064 132.5 Z M 37.5 131.564 L 37.5 128.436 C 37.498 127.92 37.08 127.502 36.564 127.5 L 33.436 127.5 C 32.92 127.502 32.502 127.92 32.5 128.436 L 32.5 131.56 C 32.502 132.076 32.92 132.494 33.436 132.496 L 36.56 132.496 C 37.076 132.496 37.496 132.08 37.5 131.564 Z M 45 131.564 L 45 128.436 C 44.998 127.92 44.58 127.502 44.064 127.5 L 40.936 127.5 C 40.42 127.502 40.002 127.92 40 128.436 L 40 131.56 C 40.002 132.076 40.42 132.494 40.936 132.496 L 44.06 132.496 C 44.576 132.496 44.996 132.08 45 131.564 Z M 37.5 139.064 L 37.5 135.936 C 37.498 135.42 37.08 135.002 36.564 135 L 33.436 135 C 32.92 135.002 32.502 135.42 32.5 135.936 L 32.5 139.06 C 32.502 139.576 32.92 139.994 33.436 139.996 L 36.56 139.996 C 37.076 139.996 37.496 139.58 37.5 139.064 Z M 30 139.064 L 30 135.936 C 29.998 135.42 29.58 135.002 29.064 135 L 25.936 135 C 25.42 135.002 25.002 135.42 25 135.936 L 25 139.06 C 25.002 139.576 25.42 139.994 25.936 139.996 L 29.06 139.996 C 29.576 139.996 29.996 139.58 30 139.064 Z M 45 139.064 L 45 135.936 C 44.998 135.42 44.58 135.002 44.064 135 L 40.936 135 C 40.42 135.002 40.002 135.42 40 135.936 L 40 139.06 C 40.002 139.576 40.42 139.994 40.936 139.996 L 44.06 139.996 C 44.576 139.996 44.996 139.58 45 139.064 Z M 52.5 118.752 L 52.5 146.252 C 52.498 148.322 50.822 149.998 48.752 150 L 21.252 150 C 19.182 150 17.502 148.322 17.5 146.252 L 17.5 118.752 C 17.5 117.756 17.896 116.802 18.598 116.098 C 19.302 115.396 20.256 115 21.252 115 L 25.004 115 L 25.004 110.936 C 25.006 110.422 25.422 110.004 25.936 110 L 29.06 110 C 29.576 110.002 29.994 110.42 29.996 110.936 L 29.996 115 L 39.996 115 L 39.996 110.936 C 39.998 110.418 40.418 110 40.936 110 L 44.06 110 C 44.576 110.002 44.994 110.42 44.996 110.936 L 44.996 115 L 48.748 115 C 49.744 115 50.698 115.396 51.402 116.098 C 52.104 116.802 52.5 117.756 52.5 118.752 Z M 48.752 145.78 L 48.752 122.5 L 21.252 122.5 L 21.252 145.78 C 21.254 146.038 21.462 146.246 21.72 146.248 L 48.3 146.248 C 48.552 146.238 48.75 146.032 48.752 145.78 Z" style="fill:rgb(160,160,160);fill-rule:nonzero;"/>
  <path d="M 29 225 C 33.42 225 37 221.42 37 217 C 37 212.58 33.42 209 29 209 C 24.58 209 21 212.58 21 217 C 21 221.42 24.58 225 29 225 Z M 32.168 228 L 25.832 228 C 19.848 228 15 232.852 15 238.832 C 15 240.032 15.972 241 17.168 241 L 40.832 241 C 42.032 241 43 240.032 43 238.832 C 43 232.852 38.152 228 32.168 228 Z M 44.944 229 L 40.328 229 C 43.2 231.356 45 234.88 45 238.832 C 45 239.632 44.764 240.368 44.376 241 L 53 241 C 54.108 241 55 240.1 55 238.944 C 55 233.472 50.528 229 44.944 229 Z M 42 225 C 45.872 225 49 221.872 49 218 C 49 214.132 45.872 211 42 211 C 40.432 211 38.996 211.536 37.832 212.408 C 38.552 213.792 39 215.34 39 217 C 39 219.22 38.252 221.26 37.028 222.92 C 38.292 224.2 40.052 225 42 225 Z" style="fill:rgb(160,160,160);fill-rule:nonzero;"/>
  <path d="M 475.005 15 C 475.443 14.996 475.865 15.108 476.239 15.318 L 492.209 22.074 C 493.083 22.444 493.669 23.212 493.723 24.226 C 494.169 31.688 491.443 47.96 476.271 54.664 C 475.889 54.882 475.381 55.008 475.005 55 C 474.553 55.008 474.115 54.882 473.661 54.664 C 458.561 47.96 455.839 31.688 456.277 24.226 C 456.333 23.212 456.923 22.444 457.799 22.074 L 473.763 15.318 C 474.139 15.108 474.569 14.996 475.005 15 Z M 475.771 43.39 L 483.435 35.594 C 485.623 33.336 485.489 29.578 482.959 27.462 C 480.903 25.61 477.755 25.954 475.771 28.008 L 475.013 28.758 L 474.193 28.008 C 472.279 25.954 469.061 25.61 466.935 27.462 C 464.475 29.578 464.341 33.336 466.529 35.594 L 474.061 43.39 C 474.607 43.868 475.357 43.868 475.771 43.39 Z" style="fill:rgb(160,160,160);fill-rule:nonzero;"/>
  <path d="M 468.75 111.876 C 468.75 110.836 467.914 110 466.876 110 C 465.836 110 465 110.836 465 111.876 L 465 115 C 462.242 115 460 117.242 460 120 L 456.876 120 C 455.836 120 455 120.836 455 121.876 C 455 122.914 455.836 123.75 456.876 123.75 L 460 123.75 L 460 128.126 L 456.876 128.126 C 455.836 128.126 455 128.96 455 130 C 455 131.04 455.836 131.876 456.876 131.876 L 460 131.876 L 460 136.25 L 456.876 136.25 C 455.836 136.25 455 137.086 455 138.126 C 455 139.164 455.836 140 456.876 140 L 460 140 C 460 142.758 462.242 145 465 145 L 465 148.126 C 465 149.164 465.836 150 466.876 150 C 467.914 150 468.75 149.164 468.75 148.126 L 468.75 145 L 473.126 145 L 473.126 148.126 C 473.126 149.164 473.96 150 475 150 C 476.04 150 476.876 149.164 476.876 148.126 L 476.876 145 L 481.25 145 L 481.25 148.126 C 481.25 149.164 482.086 150 483.126 150 C 484.164 150 485 149.164 485 148.126 L 485 145 C 487.758 145 490 142.758 490 140 L 493.126 140 C 494.164 140 495 139.164 495 138.126 C 495 137.086 494.164 136.25 493.126 136.25 L 490 136.25 L 490 131.876 L 493.126 131.876 C 494.164 131.876 495 131.04 495 130 C 495 128.96 494.164 128.126 493.126 128.126 L 490 128.126 L 490 123.75 L 493.126 123.75 C 494.164 123.75 495 122.914 495 121.876 C 495 120.836 494.164 120 493.126 120 L 490 120 C 490 117.242 487.758 115 485 115 L 485 111.876 C 485 110.836 484.164 110 483.126 110 C 482.086 110 481.25 110.836 481.25 111.876 L 481.25 115 L 476.876 115 L 476.876 111.876 C 476.876 110.836 476.04 110 475 110 C 473.96 110 473.126 110.836 473.126 111.876 L 473.126 115 L 468.75 115 L 468.75 111.876 Z M 467.5 120 L 482.5 120 C 483.882 120 485 121.118 485 122.5 L 485 137.5 C 485 138.882 483.882 140 482.5 140 L 467.5 140 C 466.118 140 465 138.882 465 137.5 L 465 122.5 C 465 121.118 466.118 120 467.5 120 Z M 482.5 122.5 L 467.5 122.5 L 467.5 137.5 L 482.5 137.5 L 482.5 122.5 Z" style="fill:rgb(160,160,160);fill-rule:nonzero;"/>
  <path d="M 490.626 207.5 L 466.876 207.5 C 464.46 207.5 462.5 209.464 462.5 211.876 L 462.5 236.876 C 462.5 237.908 461.658 238.75 460.626 238.75 C 459.592 238.75 458.75 237.906 458.75 236.876 L 458.75 213.75 C 458.75 212.714 457.91 211.876 456.876 211.876 C 455.84 211.876 455 212.714 455 213.75 L 455 236.876 C 455 239.976 457.524 242.5 460.626 242.5 L 488.126 242.5 C 491.916 242.5 495 239.416 495 235.626 L 495 211.876 C 495 209.464 493.04 207.5 490.626 207.5 Z M 491.25 235.626 C 491.25 237.348 489.848 238.75 488.126 238.75 L 465.93 238.75 C 466.132 238.164 466.25 237.532 466.25 236.876 L 466.25 211.876 C 466.25 211.53 466.53 211.25 466.876 211.25 L 490.626 211.25 C 490.97 211.25 491.25 211.53 491.25 211.876 L 491.25 235.626 Z M 475.626 226.25 L 470.626 226.25 C 469.594 226.25 468.75 227.094 468.75 228.126 C 468.75 229.156 469.594 230 470.626 230 L 475.626 230 C 476.664 230 477.5 229.164 477.5 228.126 C 477.5 227.086 476.664 226.25 475.626 226.25 Z M 486.876 226.25 L 481.876 226.25 C 480.844 226.25 480 227.094 480 228.126 C 480 229.156 480.844 230 481.876 230 L 486.876 230 C 487.91 230 488.75 229.16 488.75 228.126 C 488.75 227.09 487.914 226.25 486.876 226.25 Z M 475.626 232.5 L 470.626 232.5 C 469.59 232.5 468.75 233.34 468.75 234.376 C 468.75 235.41 469.59 236.25 470.626 236.25 L 475.626 236.25 C 476.66 236.25 477.5 235.41 477.5 234.376 C 477.5 233.34 476.664 232.5 475.626 232.5 Z M 486.876 232.5 L 481.876 232.5 C 480.844 232.5 480 233.344 480 234.376 C 480 235.406 480.84 236.25 481.876 236.25 L 486.876 236.25 C 487.91 236.25 488.75 235.41 488.75 234.376 C 488.75 233.34 487.914 232.5 486.876 232.5 Z M 486.25 213.75 L 471.25 213.75 C 469.87 213.75 468.75 214.87 468.75 216.25 L 468.75 221.25 C 468.75 222.63 469.87 223.75 471.25 223.75 L 486.25 223.75 C 487.63 223.75 488.75 222.63 488.75 221.25 L 488.75 216.25 C 488.75 214.868 487.632 213.75 486.25 213.75 Z" style="fill:rgb(160,160,160);fill-rule:nonzero;"/>
  <path d="M 1253 114 C 1257.389 114 1261 117.611 1261 122 C 1261 126.389 1257.389 130 1253 130 C 1248.611 130 1245 126.389 1245 122 C 1245 117.611 1248.611 114 1253 114 Z M 1250.144 133 L 1255.856 133 C 1257.144 133 1258.381 133.219 1259.531 133.619 C 1259.188 134.688 1259 135.819 1259 137 C 1259 140.719 1260.844 144.006 1263.675 146 L 1240.856 146 C 1239.831 146 1239 145.169 1239 144.144 C 1239 137.988 1243.988 133 1250.144 133 Z M 1261 137 C 1261 132.063 1265.063 128 1270 128 C 1274.937 128 1279 132.063 1279 137 C 1279 141.937 1274.937 146 1270 146 C 1265.063 146 1261 141.937 1261 137 Z M 1270 132 C 1269.45 132 1269 132.45 1269 133 L 1269 137 C 1269 137.55 1269.45 138 1270 138 L 1273 138 C 1273.55 138 1274 137.55 1274 137 C 1274 136.45 1273.55 136 1273 136 L 1271 136 L 1271 133 C 1271 132.45 1270.55 132 1270 132 Z" style="fill:rgb(160,160,160);fill-rule:nonzero;"/>
  <path d="M 1241.5 207.5 C 1242.883 207.5 1244 208.617 1244 210 L 1244 236.25 C 1244 236.938 1244.563 237.5 1245.25 237.5 L 1276.5 237.5 C 1277.883 237.5 1279 238.617 1279 240 C 1279 241.383 1277.883 242.5 1276.5 242.5 L 1245.25 242.5 C 1241.797 242.5 1239 239.703 1239 236.25 L 1239 210 C 1239 208.617 1240.117 207.5 1241.5 207.5 Z M 1251.5 222.5 C 1252.883 222.5 1254 223.617 1254 225 L 1254 230 C 1254 231.383 1252.883 232.5 1251.5 232.5 C 1250.117 232.5 1249 231.383 1249 230 L 1249 225 C 1249 223.617 1250.117 222.5 1251.5 222.5 Z M 1261.5 217.5 L 1261.5 230 C 1261.5 231.383 1260.383 232.5 1259 232.5 C 1257.617 232.5 1256.5 231.383 1256.5 230 L 1256.5 217.5 C 1256.5 216.117 1257.617 215 1259 215 C 1260.383 215 1261.5 216.117 1261.5 217.5 Z M 1266.5 220 C 1267.883 220 1269 221.117 1269 222.5 L 1269 230 C 1269 231.383 1267.883 232.5 1266.5 232.5 C 1265.117 232.5 1264 231.383 1264 230 L 1264 222.5 C 1264 221.117 1265.117 220 1266.5 220 Z M 1276.5 212.5 L 1276.5 230 C 1276.5 231.383 1275.383 232.5 1274 232.5 C 1272.617 232.5 1271.5 231.383 1271.5 230 L 1271.5 212.5 C 1271.5 211.117 1272.617 210 1274 210 C 1275.383 210 1276.5 211.117 1276.5 212.5 Z" style="fill:rgb(160,160,160);fill-rule:nonzero;"/>
</svg>