<?xml version="1.0" encoding="utf-8"?>
<svg width="100%" height="100%" viewBox="0 0 1620 180" version="1.1" style="fill-rule:evenodd;clip-rule:evenodd;stroke-linejoin:round;stroke-miterlimit:2;" xmlns="http://www.w3.org/2000/svg">
  <path d="M 769.996 18.002 C 769.996 8.07 760.937 0.002 749.782 0.002 L 20.209 0.002 C 9.055 0.002 -0.004 8.07 -0.004 18.002 L -0.004 162.002 C -0.004 171.934 9.055 180.002 20.209 180.002 L 749.782 180.002 C 760.937 180.002 769.996 171.934 769.996 162.002 L 769.996 18.002 Z" style="fill-opacity: 0.9;"/>
  <path d="M 1620 18.002 C 1620 8.07 1614.995 0.002 1608.83 0.002 L 861.17 0.002 C 855.005 0.002 850 8.07 850 18.002 L 850 162.002 C 850 171.934 855.005 180.002 861.17 180.002 L 1608.83 180.002 C 1614.995 180.002 1620 171.934 1620 162.002 L 1620 18.002 Z" style="fill-opacity: 0.9;"/>
</svg>