<?xml version="1.0" encoding="utf-8"?>
<svg width="100%" height="100%" viewBox="0 0 1624 105" version="1.1" style="fill-rule:evenodd;clip-rule:evenodd;stroke-linejoin:round;stroke-miterlimit:2;" xmlns="http://www.w3.org/2000/svg">
  <clipPath id="_clip1">
    <rect x="0" y="0" width="1624" height="260"/>
  </clipPath>
  <path d="M 400.001 10.501 C 400.001 4.707 395.295 0.001 389.5 0.001 L 10.501 0.001 C 4.706 0.001 0 4.707 0 10.501 L 0 94.501 C 0 100.294 4.706 105.001 10.501 105.001 L 389.5 105.001 C 395.295 105.001 400.001 100.294 400.001 94.501 L 400.001 10.501 Z" style="fill-opacity: 0.9; fill: rgb(17, 17, 17);" clip-path="url(#_clip1)"/>
  <path d="M 840.001 10.117 C 840.001 4.532 835.47 0.001 829.887 0.001 L 450.114 0.001 C 444.535 0.001 440 4.532 440 10.117 L 440 94.884 C 440 100.469 444.535 105.001 450.114 105.001 L 829.887 105.001 C 835.47 105.001 840.001 100.469 840.001 94.884 L 840.001 10.117 Z" style="fill-opacity: 0.9; fill: rgb(17, 17, 17);" clip-path="url(#_clip1)"/>
  <path d="M 1624 10.501 C 1624 4.707 1619.297 0.001 1613.504 0.001 L 890.496 0.001 C 884.703 0.001 880 4.707 880 10.501 L 880 94.501 C 880 100.294 884.703 105.001 890.496 105.001 L 1613.504 105.001 C 1619.297 105.001 1624 100.294 1624 94.501 L 1624 10.501 Z" style="fill-opacity: 0.9; fill: rgb(17, 17, 17);" clip-path="url(#_clip1)"/>
</svg>