<?xml version="1.0" encoding="UTF-8" standalone="no"?>
<!DOCTYPE svg PUBLIC "-//W3C//DTD SVG 1.1//EN" "http://www.w3.org/Graphics/SVG/1.1/DTD/svg11.dtd">
<svg width="100%" height="100%" viewBox="0 0 1624 260" version="1.1" xmlns="http://www.w3.org/2000/svg" xmlns:xlink="http://www.w3.org/1999/xlink" xml:space="preserve" xmlns:serif="http://www.serif.com/" style="fill-rule:evenodd;clip-rule:evenodd;stroke-linejoin:round;stroke-miterlimit:2;">
    <rect id="Artboard1" x="0" y="0" width="1624" height="260" style="fill:none;"/>
    <clipPath id="_clip1">
        <rect id="Artboard11" serif:id="Artboard1" x="0" y="0" width="1624" height="260"/>
    </clipPath>
    <g clip-path="url(#_clip1)">
        <g transform="matrix(0.398804,0,0,0.248227,-796.81,-304.078)">
            <path d="M3001,1253.2C3001,1237.64 2993.14,1225 2983.45,1225L2015.55,1225C2005.87,1225 1998,1237.64 1998,1253.2L1998,1478.8C1998,1494.36 2005.87,1507 2015.55,1507L2983.45,1507C2993.14,1507 3001,1494.36 3001,1478.8L3001,1253.2Z" style="fill:rgb(45,45,45);fill-opacity:0.9;"/>
        </g>
        <g transform="matrix(0.398804,0,0,0.248227,-796.81,-209.078)">
            <path d="M3001,1252.17C3001,1237.17 2993.42,1225 2984.09,1225L2014.91,1225C2005.58,1225 1998,1237.17 1998,1252.17L1998,1479.83C1998,1494.83 2005.58,1507 2014.91,1507L2984.09,1507C2993.42,1507 3001,1494.83 3001,1479.83L3001,1252.17Z" style="fill:rgb(45,45,45);fill-opacity:0.9;"/>
        </g>
        <g transform="matrix(0.398804,0,0,0.248227,-796.81,-114.078)">
            <path d="M3001,1253.2C3001,1237.64 2993.14,1225 2983.45,1225L2015.55,1225C2005.87,1225 1998,1237.64 1998,1253.2L1998,1478.8C1998,1494.36 2005.87,1507 2015.55,1507L2983.45,1507C2993.14,1507 3001,1494.36 3001,1478.8L3001,1253.2Z" style="fill:rgb(45,45,45);fill-opacity:0.9;"/>
        </g>
        <g transform="matrix(1.18046,0,0,0.248227,-1918.56,-304.078)">
            <path d="M3001,1253.2C3001,1237.64 2998.34,1225 2995.07,1225L2003.93,1225C2000.66,1225 1998,1237.64 1998,1253.2L1998,1478.8C1998,1494.36 2000.66,1507 2003.93,1507L2995.07,1507C2998.34,1507 3001,1494.36 3001,1478.8L3001,1253.2Z" style="fill:rgb(45,45,45);fill-opacity:0.9;"/>
        </g>
        <g transform="matrix(0.741775,0,0,0.248227,-1042.07,-209.078)">
            <path d="M3001,1253.2C3001,1237.64 2996.77,1225 2991.56,1225L2007.44,1225C2002.23,1225 1998,1237.64 1998,1253.2L1998,1478.8C1998,1494.36 2002.23,1507 2007.44,1507L2991.56,1507C2996.77,1507 3001,1494.36 3001,1478.8L3001,1253.2Z" style="fill:rgb(45,45,45);fill-opacity:0.9;"/>
        </g>
        <g transform="matrix(0.741775,0,0,0.248227,-1042.07,-114.078)">
            <path d="M3001,1253.2C3001,1237.64 2996.77,1225 2991.56,1225L2007.44,1225C2002.23,1225 1998,1237.64 1998,1253.2L1998,1478.8C1998,1494.36 2002.23,1507 2007.44,1507L2991.56,1507C2996.77,1507 3001,1494.36 3001,1478.8L3001,1253.2Z" style="fill:rgb(45,45,45);fill-opacity:0.9;"/>
        </g>
        <g transform="matrix(0.398804,0,0,0.248227,427.19,-209.078)">
            <path d="M3001,1253.2C3001,1237.64 2993.14,1225 2983.45,1225L2015.55,1225C2005.87,1225 1998,1237.64 1998,1253.2L1998,1478.8C1998,1494.36 2005.87,1507 2015.55,1507L2983.45,1507C2993.14,1507 3001,1494.36 3001,1478.8L3001,1253.2Z" style="fill:rgb(45,45,45);fill-opacity:0.9;"/>
        </g>
        <g transform="matrix(0.398804,0,0,0.248227,427.19,-114.078)">
            <path d="M3001,1253.2C3001,1237.64 2993.14,1225 2983.45,1225L2015.55,1225C2005.87,1225 1998,1237.64 1998,1253.2L1998,1478.8C1998,1494.36 2005.87,1507 2015.55,1507L2983.45,1507C2993.14,1507 3001,1494.36 3001,1478.8L3001,1253.2Z" style="fill:rgb(45,45,45);fill-opacity:0.9;"/>
        </g>
        <g transform="matrix(0.025,0,0,1,19.25,-1240)">
            <rect x="2030" y="1350" width="40" height="40" style="fill:rgb(160,160,160);"/>
        </g>
        <g transform="matrix(0.025,0,0,1,19.25,-1145)">
            <rect x="2030" y="1350" width="40" height="40" style="fill:rgb(160,160,160);"/>
        </g>
        <g transform="matrix(0.025,0,0,1,459.25,-1335)">
            <rect x="2030" y="1350" width="40" height="40" style="fill:rgb(160,160,160);"/>
        </g>
        <g transform="matrix(0.025,0,0,1,459.25,-1240)">
            <rect x="2030" y="1350" width="40" height="40" style="fill:rgb(160,160,160);"/>
        </g>
        <g transform="matrix(0.025,0,0,1,459.25,-1145)">
            <rect x="2030" y="1350" width="40" height="40" style="fill:rgb(160,160,160);"/>
        </g>
        <g transform="matrix(0.025,0,0,1,1243.25,-1240)">
            <rect x="2030" y="1350" width="40" height="40" style="fill:rgb(160,160,160);"/>
        </g>
        <g transform="matrix(0.025,0,0,1,1243.25,-1145)">
            <rect x="2030" y="1350" width="40" height="40" style="fill:rgb(160,160,160);"/>
        </g>
        <g transform="matrix(2,0,0,2,15,110)">
            <path d="M7.032,11.25L5.468,11.25C5.21,11.249 5.001,11.04 5,10.782L5,9.218C5.001,8.96 5.21,8.751 5.468,8.75L7.03,8.75C7.288,8.751 7.497,8.96 7.498,9.218L7.498,10.78C7.498,11.038 7.29,11.248 7.032,11.25ZM11.25,10.782L11.25,9.218C11.249,8.96 11.04,8.751 10.782,8.75L9.218,8.75C8.96,8.751 8.751,8.96 8.75,9.218L8.75,10.78C8.751,11.038 8.96,11.247 9.218,11.248L10.78,11.248C11.038,11.248 11.248,11.04 11.25,10.782ZM15,10.782L15,9.218C14.999,8.96 14.79,8.751 14.532,8.75L12.968,8.75C12.71,8.751 12.501,8.96 12.5,9.218L12.5,10.78C12.501,11.038 12.71,11.247 12.968,11.248L14.53,11.248C14.788,11.248 14.998,11.04 15,10.782ZM11.25,14.532L11.25,12.968C11.249,12.71 11.04,12.501 10.782,12.5L9.218,12.5C8.96,12.501 8.751,12.71 8.75,12.968L8.75,14.53C8.751,14.788 8.96,14.997 9.218,14.998L10.78,14.998C11.038,14.998 11.248,14.79 11.25,14.532ZM7.5,14.532L7.5,12.968C7.499,12.71 7.29,12.501 7.032,12.5L5.468,12.5C5.21,12.501 5.001,12.71 5,12.968L5,14.53C5.001,14.788 5.21,14.997 5.468,14.998L7.03,14.998C7.288,14.998 7.498,14.79 7.5,14.532ZM15,14.532L15,12.968C14.999,12.71 14.79,12.501 14.532,12.5L12.968,12.5C12.71,12.501 12.501,12.71 12.5,12.968L12.5,14.53C12.501,14.788 12.71,14.997 12.968,14.998L14.53,14.998C14.788,14.998 14.998,14.79 15,14.532ZM18.75,4.376L18.75,18.126C18.749,19.161 17.911,19.999 16.876,20L3.126,20C2.091,20 1.251,19.161 1.25,18.126L1.25,4.376C1.25,3.878 1.448,3.401 1.799,3.049C2.151,2.698 2.628,2.5 3.126,2.5L5.002,2.5L5.002,0.468C5.003,0.211 5.211,0.002 5.468,0L7.03,0C7.288,0.001 7.497,0.21 7.498,0.468L7.498,2.5L12.498,2.5L12.498,0.468C12.499,0.209 12.709,0 12.968,0L14.53,0C14.788,0.001 14.997,0.21 14.998,0.468L14.998,2.5L16.874,2.5C17.372,2.5 17.849,2.698 18.201,3.049C18.552,3.401 18.75,3.878 18.75,4.376ZM16.876,17.89L16.876,6.25L3.126,6.25L3.126,17.89C3.127,18.019 3.231,18.123 3.36,18.124L16.65,18.124C16.776,18.119 16.875,18.016 16.876,17.89Z" style="fill:rgb(160,160,160);fill-rule:nonzero;"/>
        </g>
        <g transform="matrix(2,0,0,2,15,205)">
            <path d="M7,10C9.21,10 11,8.21 11,6C11,3.79 9.21,2 7,2C4.79,2 3,3.79 3,6C3,8.21 4.79,10 7,10ZM8.584,11.5L5.416,11.5C2.424,11.5 0,13.926 0,16.916C0,17.516 0.486,18 1.084,18L12.916,18C13.516,18 14,17.516 14,16.916C14,13.926 11.576,11.5 8.584,11.5ZM14.972,12L12.664,12C14.1,13.178 15,14.94 15,16.916C15,17.316 14.882,17.684 14.688,18L19,18C19.554,18 20,17.55 20,16.972C20,14.236 17.764,12 14.972,12ZM13.5,10C15.436,10 17,8.436 17,6.5C17,4.566 15.436,3 13.5,3C12.716,3 11.998,3.268 11.416,3.704C11.776,4.396 12,5.17 12,6C12,7.11 11.626,8.13 11.014,8.96C11.646,9.6 12.526,10 13.5,10Z" style="fill:rgb(160,160,160);fill-rule:nonzero;"/>
        </g>
        <g transform="matrix(1.99998,0,0,1.99998,455.001,15.0001)">
            <path d="M10.002,0C10.221,-0.002 10.432,0.054 10.619,0.159L18.604,3.537C19.041,3.722 19.334,4.106 19.361,4.613C19.584,8.344 18.221,16.48 10.635,19.832C10.444,19.941 10.19,20.004 10.002,20C9.776,20.004 9.557,19.941 9.33,19.832C1.78,16.48 0.419,8.344 0.638,4.613C0.666,4.106 0.961,3.722 1.399,3.537L9.381,0.159C9.569,0.054 9.784,-0.002 10.002,0ZM10.385,14.195L14.217,10.297C15.311,9.168 15.244,7.289 13.979,6.231C12.951,5.305 11.377,5.477 10.385,6.504L10.006,6.879L9.596,6.504C8.639,5.477 7.03,5.305 5.967,6.231C4.737,7.289 4.67,9.168 5.764,10.297L9.53,14.195C9.803,14.434 10.178,14.434 10.385,14.195Z" style="fill:rgb(160,160,160);fill-rule:nonzero;"/>
        </g>
        <g transform="matrix(2,0,0,2,455,110)">
            <path d="M6.875,0.938C6.875,0.418 6.457,0 5.938,0C5.418,0 5,0.418 5,0.938L5,2.5C3.621,2.5 2.5,3.621 2.5,5L0.938,5C0.418,5 0,5.418 0,5.938C0,6.457 0.418,6.875 0.938,6.875L2.5,6.875L2.5,9.063L0.938,9.063C0.418,9.063 0,9.48 0,10C0,10.52 0.418,10.938 0.938,10.938L2.5,10.938L2.5,13.125L0.938,13.125C0.418,13.125 0,13.543 0,14.063C0,14.582 0.418,15 0.938,15L2.5,15C2.5,16.379 3.621,17.5 5,17.5L5,19.063C5,19.582 5.418,20 5.938,20C6.457,20 6.875,19.582 6.875,19.063L6.875,17.5L9.063,17.5L9.063,19.063C9.063,19.582 9.48,20 10,20C10.52,20 10.938,19.582 10.938,19.063L10.938,17.5L13.125,17.5L13.125,19.063C13.125,19.582 13.543,20 14.063,20C14.582,20 15,19.582 15,19.063L15,17.5C16.379,17.5 17.5,16.379 17.5,15L19.063,15C19.582,15 20,14.582 20,14.063C20,13.543 19.582,13.125 19.063,13.125L17.5,13.125L17.5,10.938L19.063,10.938C19.582,10.938 20,10.52 20,10C20,9.48 19.582,9.063 19.063,9.063L17.5,9.063L17.5,6.875L19.063,6.875C19.582,6.875 20,6.457 20,5.938C20,5.418 19.582,5 19.063,5L17.5,5C17.5,3.621 16.379,2.5 15,2.5L15,0.938C15,0.418 14.582,0 14.063,0C13.543,0 13.125,0.418 13.125,0.938L13.125,2.5L10.938,2.5L10.938,0.938C10.938,0.418 10.52,0 10,0C9.48,0 9.063,0.418 9.063,0.938L9.063,2.5L6.875,2.5L6.875,0.938ZM6.25,5L13.75,5C14.441,5 15,5.559 15,6.25L15,13.75C15,14.441 14.441,15 13.75,15L6.25,15C5.559,15 5,14.441 5,13.75L5,6.25C5,5.559 5.559,5 6.25,5ZM13.75,6.25L6.25,6.25L6.25,13.75L13.75,13.75L13.75,6.25Z" style="fill:rgb(160,160,160);fill-rule:nonzero;"/>
        </g>
        <g transform="matrix(2,0,0,2,455,205)">
            <path d="M17.813,1.25L5.938,1.25C4.73,1.25 3.75,2.232 3.75,3.438L3.75,15.938C3.75,16.454 3.329,16.875 2.813,16.875C2.296,16.875 1.875,16.453 1.875,15.938L1.875,4.375C1.875,3.857 1.455,3.438 0.938,3.438C0.42,3.438 0,3.857 0,4.375L0,15.938C0,17.488 1.262,18.75 2.813,18.75L16.563,18.75C18.458,18.75 20,17.208 20,15.313L20,3.438C20,2.232 19.02,1.25 17.813,1.25ZM18.125,15.313C18.125,16.174 17.424,16.875 16.563,16.875L5.465,16.875C5.566,16.582 5.625,16.266 5.625,15.938L5.625,3.438C5.625,3.265 5.765,3.125 5.938,3.125L17.813,3.125C17.985,3.125 18.125,3.265 18.125,3.438L18.125,15.313ZM10.313,10.625L7.813,10.625C7.297,10.625 6.875,11.047 6.875,11.563C6.875,12.078 7.297,12.5 7.813,12.5L10.313,12.5C10.832,12.5 11.25,12.082 11.25,11.563C11.25,11.043 10.832,10.625 10.313,10.625ZM15.938,10.625L13.438,10.625C12.922,10.625 12.5,11.047 12.5,11.563C12.5,12.078 12.922,12.5 13.438,12.5L15.938,12.5C16.455,12.5 16.875,12.08 16.875,11.563C16.875,11.045 16.457,10.625 15.938,10.625ZM10.313,13.75L7.813,13.75C7.295,13.75 6.875,14.17 6.875,14.688C6.875,15.205 7.295,15.625 7.813,15.625L10.313,15.625C10.83,15.625 11.25,15.205 11.25,14.688C11.25,14.17 10.832,13.75 10.313,13.75ZM15.938,13.75L13.438,13.75C12.922,13.75 12.5,14.172 12.5,14.688C12.5,15.203 12.92,15.625 13.438,15.625L15.938,15.625C16.455,15.625 16.875,15.205 16.875,14.688C16.875,14.17 16.457,13.75 15.938,13.75ZM15.625,4.375L8.125,4.375C7.435,4.375 6.875,4.935 6.875,5.625L6.875,8.125C6.875,8.815 7.435,9.375 8.125,9.375L15.625,9.375C16.315,9.375 16.875,8.815 16.875,8.125L16.875,5.625C16.875,4.934 16.316,4.375 15.625,4.375Z" style="fill:rgb(160,160,160);fill-rule:nonzero;"/>
        </g>
        <g transform="matrix(0.0625,0,0,0.0625,1239,114)">
            <path d="M224,0C294.219,-0 352,57.781 352,128C352,198.219 294.219,256 224,256C153.781,256 96,198.219 96,128C96,57.781 153.781,0 224,0ZM178.3,304L269.7,304C290.3,304 310.1,307.5 328.5,313.9C323,331 320,349.1 320,368C320,427.5 349.5,480.1 394.8,512L29.7,512C13.3,512 0,498.7 0,482.3C0,383.8 79.8,304 178.3,304ZM352,368C352,289.004 417.004,224 496,224C574.996,224 640,289.004 640,368C640,446.996 574.996,512 496,512C417.004,512 352,446.996 352,368ZM496,288C487.2,288 480,295.2 480,304L480,368C480,376.8 487.2,384 496,384L544,384C552.8,384 560,376.8 560,368C560,359.2 552.8,352 544,352L512,352L512,304C512,295.2 504.8,288 496,288Z" style="fill:rgb(160,160,160);fill-rule:nonzero;"/>
        </g>
        <g transform="matrix(0.078125,0,0,0.078125,1239,205)">
            <path d="M32,32C49.7,32 64,46.3 64,64L64,400C64,408.8 71.2,416 80,416L480,416C497.7,416 512,430.3 512,448C512,465.7 497.7,480 480,480L80,480C35.8,480 0,444.2 0,400L0,64C0,46.3 14.3,32 32,32ZM160,224C177.7,224 192,238.3 192,256L192,320C192,337.7 177.7,352 160,352C142.3,352 128,337.7 128,320L128,256C128,238.3 142.3,224 160,224ZM288,160L288,320C288,337.7 273.7,352 256,352C238.3,352 224,337.7 224,320L224,160C224,142.3 238.3,128 256,128C273.7,128 288,142.3 288,160ZM352,192C369.7,192 384,206.3 384,224L384,320C384,337.7 369.7,352 352,352C334.3,352 320,337.7 320,320L320,224C320,206.3 334.3,192 352,192ZM480,96L480,320C480,337.7 465.7,352 448,352C430.3,352 416,337.7 416,320L416,96C416,78.3 430.3,64 448,64C465.7,64 480,78.3 480,96Z" style="fill:rgb(160,160,160);fill-rule:nonzero;"/>
        </g>
    </g>
</svg>
