<?xml version="1.0" encoding="utf-8"?>
<svg width="100%" height="100%" viewBox="0 0 1624 105" version="1.1" style="fill-rule:evenodd;clip-rule:evenodd;stroke-linejoin:round;stroke-miterlimit:2;" xmlns="http://www.w3.org/2000/svg">
  <path d="M 400.001 10.501 C 400.001 4.707 395.295 0.001 389.5 0.001 L 10.501 0.001 C 4.706 0.001 0 4.707 0 10.501 L 0 94.501 C 0 100.295 4.706 105.001 10.501 105.001 L 389.5 105.001 C 395.295 105.001 400.001 100.295 400.001 94.501 L 400.001 10.501 Z" style="fill-opacity: 0.9;" clip-path="url(#_clip1)"/>
  <path d="M 860 10.118 C 860 4.532 855.243 0.001 849.381 0.001 L 450.62 0.001 C 444.761 0.001 440 4.532 440 10.118 L 440 94.884 C 440 100.47 444.761 105.001 450.62 105.001 L 849.381 105.001 C 855.243 105.001 860 100.47 860 94.884 L 860 10.118 Z" style="fill-opacity: 0.9;" clip-path="url(#_clip1)"/>
  <path d="M 1623.998 10.501 C 1623.998 4.707 1619.422 0.001 1613.784 0.001 L 910.213 0.001 C 904.575 0.001 899.999 4.707 899.999 10.501 L 899.999 94.501 C 899.999 100.295 904.575 105.001 910.213 105.001 L 1613.784 105.001 C 1619.422 105.001 1623.998 100.295 1623.998 94.501 L 1623.998 10.501 Z" style="fill-opacity: 0.9;" clip-path="url(#_clip1)"/>
</svg>